<svg xmlns="http://www.w3.org/2000/svg" width="147" height="29" viewBox="0 0 147 29" fill="none">
<path d="M38.2498 6.72144C35.4296 6.72144 32.7668 7.81016 30.7511 9.78647L16.7158 23.5551C15.1024 25.1379 12.9687 26.008 10.7125 26.008C6.01659 26.008 2.19076 22.2172 2.13829 17.5343C2.08145 12.8821 5.80234 8.99507 10.4546 8.85953C12.8069 8.78957 15.0412 9.66842 16.7158 11.3081L20.2924 14.8191C20.4848 15.0071 20.7952 15.0027 20.9833 14.8103L21.7965 13.984C21.9845 13.7916 21.9802 13.4811 21.7878 13.2931L18.2112 9.7821C16.1955 7.81016 13.5327 6.72144 10.7082 6.72144C4.7005 6.72144 -0.170328 11.6972 0.00456723 17.7486C0.166345 23.2753 4.57371 27.8138 10.0917 28.1242C13.1392 28.2948 16.0468 27.1973 18.2068 25.0767L32.2421 11.3081C33.8555 9.72526 35.9893 8.85516 38.2454 8.85516C42.9413 8.85516 46.7628 12.646 46.8196 17.3288C46.8809 21.981 43.1556 25.8681 38.5078 26.0036C36.1554 26.0736 33.9211 25.1947 32.2465 23.5551L28.6699 20.0441C28.4775 19.8561 28.1671 19.8604 27.9791 20.0528L27.1658 20.8792C26.9778 21.0716 26.9822 21.382 27.1745 21.57L30.7511 25.0811C32.9111 27.2017 35.8187 28.2991 38.8663 28.1286C44.3886 27.8225 48.796 23.2796 48.9577 17.753C49.1326 11.6972 44.2618 6.72144 38.2498 6.72144Z" fill="url(#paint0_linear_4676_148439)"/>
<path fill-rule="evenodd" clip-rule="evenodd" d="M125.978 25.3605C126.113 25.3605 126.253 25.2774 126.336 25.1375C126.393 25.002 126.393 24.8621 126.306 24.7178L121.12 17.757L125.864 11.5176C125.947 11.4083 125.974 11.2421 125.89 11.1022C125.838 10.9623 125.698 10.8792 125.532 10.8792H124.203C124.037 10.8792 123.87 10.9623 123.787 11.1022L118.82 17.6214V4.55673C118.82 4.33374 118.624 4.14136 118.374 4.14136H117.211C116.988 4.14136 116.796 4.33374 116.796 4.55673V24.9451C116.796 25.1681 116.988 25.3605 117.211 25.3605H118.374C118.628 25.3605 118.82 25.1681 118.82 24.9451V17.9275L124.203 25.1681C124.312 25.2774 124.452 25.3605 124.618 25.3605H125.978ZM84.6542 19.5055V19.9208C84.6542 23.6111 82.4899 25.3295 78.4979 25.3295H73.1986C72.9756 25.3295 72.7832 25.1371 72.7832 24.9141V5.94234C72.7832 5.69312 72.9756 5.50073 73.1986 5.50073H78.0519C82.1008 5.50073 84.2913 6.94362 84.2913 10.5771V10.8525C84.2913 12.8769 83.6792 14.2105 82.4593 14.9582C83.9065 15.8196 84.6542 17.3149 84.6542 19.5055ZM74.8338 14.1537H78.135C80.9377 14.1537 82.2669 13.2923 82.2669 10.7695V10.6033C82.2669 8.13291 80.9639 7.35899 78.135 7.35899H74.8338V14.1537ZM82.656 19.5885C82.656 17.0919 81.27 15.9813 78.5766 15.9813H74.8338V23.445H78.5766C81.3225 23.445 82.656 22.365 82.656 19.9208V19.5885ZM69.482 25.0013L69.4858 25.0132C69.511 25.0923 69.5361 25.1714 69.482 25.2505C69.4252 25.3336 69.3421 25.3599 69.259 25.3599H67.65C67.4576 25.3599 67.2608 25.2768 67.1778 25.1106L64.0428 19.8113L60.8815 25.1106C60.7985 25.2768 60.6061 25.3599 60.4093 25.3599H58.8003C58.7172 25.3599 58.6341 25.3336 58.5773 25.2505C58.5511 25.1675 58.5511 25.0844 58.5773 25.0013L62.8491 17.8437L58.9096 11.2414C58.8834 11.1584 58.8834 11.0753 58.9096 10.9922C58.9664 10.9091 59.0495 10.8523 59.1326 10.8523H60.7679C60.934 10.8523 61.1264 10.9616 61.2401 11.1278L64.0428 15.8412L66.8455 11.1278C66.9285 10.9616 67.1209 10.8523 67.3177 10.8523H68.9267C69.0098 10.8523 69.0929 10.9091 69.1497 10.9922C69.1759 11.0753 69.1759 11.1584 69.1497 11.2414L65.2102 17.8437L69.482 25.0013ZM97.9108 24.9187V15.7367C97.9108 12.4618 96.328 10.8528 93.2017 10.8484C90.5958 10.8484 88.6282 11.959 88.1822 14.4556C88.1298 14.7048 88.3222 14.9278 88.5714 14.9278H89.7913C90.0449 14.9278 90.2635 14.7617 90.3203 14.5124C90.5696 13.3756 91.3478 12.5449 93.123 12.5449C95.0075 12.5449 95.8951 13.5724 95.8951 15.6799V16.5106H93.674C88.2085 16.5106 87.627 19.6719 87.627 21.0317V21.2547C87.627 23.7775 89.2928 25.3603 91.9818 25.3603C93.6433 25.3603 94.8938 25.0018 95.8908 24.1973V24.9187C95.8908 25.1723 96.0831 25.3647 96.3324 25.3647H97.4954C97.7184 25.3647 97.9108 25.1679 97.9108 24.9187ZM93.7789 18.2596H95.882V20.4501C95.882 22.4745 94.5528 23.5851 92.2223 23.5851C90.4209 23.5851 89.6164 22.8375 89.6164 21.1453V21.0623C89.6164 19.204 91.0068 18.2596 93.7789 18.2596ZM111.251 12.2396C112.082 13.1272 112.528 14.3471 112.528 15.7638V24.9152C112.528 25.1382 112.336 25.3306 112.082 25.3306H110.919C110.696 25.3306 110.504 25.1382 110.504 24.9152V15.7638C110.504 14.0717 109.087 12.655 107.369 12.655C105.676 12.655 104.29 14.0717 104.29 15.7638V24.9152C104.29 25.1382 104.098 25.3306 103.849 25.3306H102.686C102.463 25.3306 102.244 25.1382 102.244 24.9152V11.269C102.244 11.0198 102.467 10.8274 102.686 10.8274H103.849C104.098 10.8274 104.29 11.0198 104.29 11.269V12.0167C105.204 11.1859 106.206 10.823 107.648 10.823C109.113 10.8274 110.333 11.3258 111.251 12.2396Z" fill="#20242B"/>
<rect x="138.102" y="24.2166" width="2.21805" height="3.92543" fill="#662914"/>
<rect x="139.171" y="24.2166" width="1.13639" height="3.92543" fill="#40190C"/>
<path d="M139.206 25.4465C142.265 25.4465 144.854 24.8753 145.724 24.0877C146.056 23.7879 145.925 23.2995 145.711 22.9072L139.793 12.048C139.54 11.5835 138.873 11.5835 138.619 12.048L132.701 22.9072C132.487 23.2995 132.356 23.7879 132.688 24.0877C133.558 24.8753 136.148 25.4465 139.206 25.4465Z" fill="#00643A"/>
<mask id="mask0_4676_148439" style="mask-type:alpha" maskUnits="userSpaceOnUse" x="137" y="18" width="9" height="4">
<path d="M145.133 20.5597C143.342 21.6243 139.127 21.1242 137.052 20.4969L144.075 18.9519L145.133 20.5597Z" fill="#D9D9D9"/>
</mask>
<g mask="url(#mask0_4676_148439)">
<path d="M139.216 25.4473C142.274 25.4473 144.863 24.876 145.734 24.0884C146.065 23.7886 145.935 23.3003 145.721 22.9079L139.802 12.0487C139.549 11.5842 138.882 11.5842 138.629 12.0487L132.711 22.9079C132.497 23.3003 132.366 23.7886 132.698 24.0884C133.568 24.876 136.157 25.4473 139.216 25.4473Z" fill="#004326"/>
</g>
<path d="M139.208 20.7572C141.815 20.7572 144.033 20.2832 144.852 19.6217C145.2 19.341 145.078 18.8515 144.864 18.4591L139.794 9.15712C139.541 8.69263 138.874 8.69263 138.621 9.15712L133.551 18.4591C133.338 18.8515 133.216 19.341 133.563 19.6217C134.383 20.2832 136.6 20.7572 139.208 20.7572Z" fill="#00864D"/>
<mask id="mask1_4676_148439" style="mask-type:alpha" maskUnits="userSpaceOnUse" x="136" y="14" width="9" height="3">
<path d="M144.806 15.9699C143.015 17.0345 138.8 16.5344 136.725 15.9071L143.748 14.3621L144.806 15.9699Z" fill="#002A18"/>
</mask>
<g mask="url(#mask1_4676_148439)">
<path d="M139.21 20.7638C141.818 20.7638 144.035 20.2898 144.855 19.6283C145.202 19.3476 145.08 18.8581 144.867 18.4657L139.797 9.16371C139.544 8.69922 138.877 8.69922 138.624 9.16371L133.554 18.4657C133.34 18.8581 133.218 19.3476 133.566 19.6283C134.385 20.2898 136.603 20.7638 139.21 20.7638Z" fill="#00643A"/>
</g>
<circle cx="139.269" cy="4.83914" r="0.698515" fill="#50B0F8"/>
<path d="M139.2 16.1409C141.355 16.1409 143.199 15.7627 143.956 15.2271C144.321 14.9689 144.211 14.4791 143.998 14.0867L139.786 6.36C139.533 5.89551 138.866 5.89551 138.613 6.36L134.402 14.0867C134.188 14.4791 134.078 14.9689 134.443 15.2271C135.2 15.7627 137.044 16.1409 139.2 16.1409Z" fill="#00A760"/>
<circle cx="139.042" cy="10.0083" r="0.698515" fill="#FF4D94"/>
<circle cx="136.949" cy="21.9245" r="0.610549" fill="#FF4D94"/>
<circle cx="139.409" cy="16.9289" r="0.370583" fill="#FF4D94"/>
<circle cx="141.361" cy="11.406" r="0.543434" fill="#7700B3"/>
<circle cx="137.881" cy="14.3161" r="0.543434" fill="white"/>
<circle cx="141.878" cy="18.462" r="0.522583" fill="white"/>
<circle cx="143.684" cy="22.3123" r="0.401386" fill="white"/>
<circle cx="135.004" cy="23.2372" r="0.522583" fill="white"/>
<circle cx="137.152" cy="11.641" r="0.400082" fill="#50B0F8"/>
<circle cx="141.506" cy="23.8129" r="0.400082" fill="#50B0F8"/>
<circle cx="138.49" cy="18.9865" r="0.77801" fill="#50B0F8"/>
<circle cx="140.638" cy="13.1522" r="0.304035" fill="#FFB833"/>
<circle cx="139.967" cy="21.618" r="0.304035" fill="#FFB833"/>
<circle cx="142.31" cy="16.9467" r="0.400082" fill="#7700B3"/>
<circle cx="135.842" cy="17.8912" r="0.595562" fill="#FFB833"/>
<path d="M85.9887 8.2778C85.9887 8.2778 86.286 8.28333 86.4352 8.38727C86.584 8.48451 86.7783 8.65267 86.8004 8.77253C86.8221 8.88568 86.7391 8.85793 86.7391 8.85793C86.7391 8.85793 86.9708 8.98291 86.9465 9.20734C86.9222 9.43177 86.9222 9.43177 86.9222 9.43177C86.9222 9.43177 86.8622 9.34838 86.8123 9.3115C86.8123 9.3115 86.967 9.67821 86.7633 9.84811C86.553 10.0185 86.169 10.2149 85.9393 10.1168L86.014 10.0304C86.014 10.0304 85.8161 10.1864 85.5211 10.0255C85.226 9.86458 85.2478 9.51213 85.2478 9.51213L85.3188 9.56099C85.3188 9.56099 85.2027 9.44791 85.2226 9.16306C85.2416 8.86479 85.3521 8.52617 85.3521 8.52617L85.3709 8.69351C85.3633 8.68057 85.6334 8.21572 85.9887 8.2778Z" fill="#F5FCFF"/>
<path d="M85.6152 9.50699C85.9351 9.6391 86.2304 9.42886 86.3328 9.16505C86.3304 9.22595 86.3895 9.29592 86.3056 9.34921C86.6857 9.19356 86.5526 8.75107 86.4454 8.38768C86.5946 8.49162 86.7817 8.65356 86.8034 8.76671C86.825 8.87986 86.7421 8.85211 86.7421 8.85211C86.7421 8.85211 86.9738 8.97709 86.9495 9.20152C86.9252 9.42595 86.9252 9.42595 86.9252 9.42595C86.9252 9.42595 86.8652 9.34256 86.8153 9.30567C86.8153 9.30567 86.9699 9.67239 86.7663 9.84229C86.5559 10.0127 86.172 10.2091 85.9422 10.1109L86.0169 10.0246C86.0169 10.0246 85.819 10.1806 85.524 10.0197C85.229 9.85876 85.2508 9.5063 85.2508 9.5063L85.3218 9.55516C85.3218 9.55516 85.2124 9.4416 85.2261 9.16395C85.3383 9.22333 85.4688 9.2544 85.5963 9.24519C85.3351 9.36527 85.7149 9.39184 85.6152 9.50699Z" fill="#D8F0F4"/>
<path d="M82.2915 1.3527C82.2915 1.3527 84.3491 0.748329 85.5206 2.11456C86.169 2.87075 86.1359 7.46163 86.1213 8.38039C86.1228 8.49499 86.0634 8.60724 85.9738 8.67444C85.8521 8.7642 85.6891 8.84344 85.5667 8.73755C85.3508 8.5507 83.6416 4.31499 83.3627 3.25547C83.0838 2.19595 82.2915 1.3527 82.2915 1.3527Z" fill="#EC2929"/>
<path d="M76.5222 3.88019C76.5222 3.88019 77.1877 2.27813 78.7019 1.87234C80.2162 1.46655 82.6835 1.18187 83.3617 1.49952C84.0398 1.81717 85.1156 4.49198 85.1138 5.48881C85.1121 6.48565 84.8725 6.85477 84.8725 6.85477C84.8725 6.85477 76.8848 4.40004 76.5222 3.88019Z" fill="#EC2929"/>
<path d="M75.9416 5.53614C75.9416 5.53614 80.5275 6.5136 83.7988 8.19389C84.4367 8.63035 84.7769 8.2511 84.7573 7.8914C84.7103 7.16934 85.2767 7.03435 85.0993 6.48887C84.9819 6.1314 78.2506 2.98946 76.3197 3.73979C75.9535 4.0396 76.5212 4.21398 76.4515 4.41992C76.3819 4.62585 75.6613 4.92939 75.9416 5.53614Z" fill="#F5FCFF"/>
<path d="M84.7579 7.88995C84.7108 7.16789 85.2773 7.0329 85.0999 6.48742C85.0868 6.4477 84.9814 6.36791 84.8074 6.25609C84.3712 6.84116 83.7167 7.15821 82.9598 6.708C83.0939 6.88575 83.3315 6.96613 83.3913 7.18057C82.2942 7.13605 81.3132 6.53942 80.334 6.1464C80.3724 6.42421 80.5913 6.56003 80.7996 6.70109C79.6957 6.38948 78.6372 5.96967 77.6057 5.44421C77.6769 5.49477 77.7348 5.55848 77.761 5.61148C77.1185 5.60599 76.6127 5.17012 76.0881 4.81612C75.9207 4.99783 75.798 5.22997 75.9474 5.54529C75.9474 5.54529 80.5333 6.52275 83.8046 8.20304C84.4452 8.63158 84.7854 8.25232 84.7579 7.88995Z" fill="#D8F0F4"/>
<path d="M77.6083 5.43645C77.5791 5.41771 77.542 5.39627 77.5101 5.3855C77.5393 5.40424 77.5712 5.41501 77.6083 5.43645Z" fill="#D8F0F4"/>
<path opacity="0.2" d="M80.8242 2.49325C80.8242 2.49325 79.598 1.73425 79.1038 2.28205C78.6095 2.82984 80.7007 3.51071 80.9085 3.15731C81.1084 2.80123 81.117 2.64527 80.8242 2.49325Z" fill="#F5FCFF"/>
<defs>
<linearGradient id="paint0_linear_4676_148439" x1="39" y1="7.14136" x2="5.50005" y2="28.1414" gradientUnits="userSpaceOnUse">
<stop stop-color="#EA01E5"/>
<stop offset="0.437907" stop-color="#5844F5"/>
<stop offset="1" stop-color="#1CFEF0"/>
</linearGradient>
</defs>
</svg>